<?xml version="1.0" encoding="utf-8"?>
<svg viewBox="-590.864 442.061 1274.577 1025.425" xmlns="http://www.w3.org/2000/svg">
  <path fill="#E23933" d="M810 41.36v.898c-.011 9.792-4.239 19.18-11.758 26.104-7.518 6.924-17.712 10.819-28.344 10.828H604.902a14.49 14.49 0 00-5.241.97 13.584 13.584 0 00-4.419 2.769l-42.497 39.063V42.221c0-10.023 4.323-19.636 12.019-26.723 7.696-7.088 18.133-11.07 29.017-11.07h176.117c10.632.01 20.826 3.905 28.344 10.829C805.761 22.18 809.989 31.569 810 41.36z" transform="matrix(1, 0, 0, 1, -379.04425, 603.887817)"/>
  <path fill="#164C97" stroke="#fff" strokewidth="3" d="M602.991 193.572h166.42c10.405 0 20.362-3.808 27.685-10.552 7.318-6.741 11.404-15.855 11.404-25.329 0-9.475-4.086-18.589-11.404-25.329-7.323-6.745-17.28-10.552-27.685-10.552H579.978a27.727 27.727 0 00-9.893 1.801c-3.133 1.193-5.973 2.94-8.359 5.138-2.385 2.196-4.269 4.798-5.55 7.653a21.835 21.835 0 00-1.931 8.988v89.062l41.32-38.054.009-.008c1.996-1.811 4.661-2.812 7.417-2.818z" transform="matrix(1, 0, 0, 1, -379.04425, 603.887817)"/>
  <path fill="#FFCF2D" d="M810 277.309c0 9.914-4.276 19.422-11.888 26.433-7.612 7.01-17.936 10.948-28.701 10.948H602.995c-2.401.006-4.703.879-6.414 2.43l-43.836 40.372v-92.481a23.335 23.335 0 012.062-9.604c1.367-3.046 3.373-5.813 5.903-8.143 2.53-2.33 5.535-4.177 8.842-5.436a29.244 29.244 0 0110.428-1.9h189.431c10.765 0 21.089 3.939 28.701 10.949 7.612 7.01 11.888 16.518 11.888 26.432z" transform="matrix(1, 0, 0, 1, -379.04425, 603.887817)"/>
  <path fill="#2F281E" d="M810 393.191c0 9.914-4.276 19.422-11.888 26.432-7.612 7.01-17.936 10.949-28.701 10.949H602.995c-2.401.005-4.703.878-6.414 2.429l-43.836 40.372v-92.481a23.335 23.335 0 012.062-9.604c1.367-3.046 3.373-5.813 5.903-8.143 2.53-2.33 5.535-4.177 8.842-5.436a29.222 29.222 0 0110.428-1.899h189.431c10.765 0 21.089 3.938 28.701 10.948 7.612 7.011 11.888 16.519 11.888 26.433z" transform="matrix(1, 0, 0, 1, -379.04425, 603.887817)"/>
  <path fill="#A5B4B4" d="M 430.956 1120.488 C 430.956 1130.402 426.68 1139.91 419.068 1146.92 C 411.456 1153.93 401.132 1157.869 390.367 1157.869 L 223.951 1157.869 C 221.55 1157.875 219.248 1158.747 217.537 1160.298 L 173.701 1200.67 L 173.701 1108.189 C 173.699 1104.878 174.402 1101.604 175.763 1098.585 C 177.13 1095.539 179.136 1092.772 181.666 1090.442 C 184.196 1088.112 187.201 1086.265 190.508 1085.006 C 193.839 1083.743 197.373 1083.099 200.936 1083.107 L 390.367 1083.107 C 401.132 1083.107 411.456 1087.045 419.068 1094.055 C 426.68 1101.066 430.956 1110.574 430.956 1120.488 L 430.956 1120.488 Z"/>
  <path fill="#E23933" d="M263.951 60.5l-26.707-29.905L263.951.69h264.44V60.5h-264.44z" transform="matrix(1, 0, 0, 1, -379.04425, 603.887817)"/>
  <path fill="#FE5244" d="M200.794 120.31l-26.707-29.905L200.794 60.5h327.597v59.81H200.794z" transform="matrix(1, 0, 0, 1, -379.04425, 603.887817)"/>
  <path fill="#164C97" stroke="#fff" strokewidth="3" d="M90.535 178.619h436.356V121.81H90.535l-25.368 28.404 25.368 28.405z" transform="matrix(1, 0, 0, 1, -379.04425, 603.887817)"/>
  <path fill="#66B0F0" d="M147.379 239.928l-26.708-29.904 26.708-29.905h381.012v59.809H147.379z" transform="matrix(1, 0, 0, 1, -379.04425, 603.887817)"/>
  <path fill="#BFCFCC" d="M228.111 598.786l-26.708-29.905 26.708-29.905h300.28v59.81h-300.28z" transform="matrix(1, 0, 0, 1, -379.04425, 603.887817)"/>
  <path fill="#FFCF2D" d="M122.295 299.738l-26.708-29.905 26.708-29.905h406.096v59.81H122.295z" transform="matrix(1, 0, 0, 1, -379.04425, 603.887817)"/>
  <path fill="#F5C55F" fillopacity="0.98" d="M76.185 359.548l-26.708-29.905 26.708-29.905h452.206v59.81H76.185z" transform="matrix(1, 0, 0, 1, -379.04425, 603.887817)"/>
  <path fill="#22343D" d="M26.707 419.357L-.001 389.452l26.708-29.904H528.39v59.809H26.707z" transform="matrix(1, 0, 0, 1, -379.04425, 603.887817)"/>
  <path fill="#A5B4B4" d="M133.781 538.976l-26.707-29.905 26.707-29.904h394.61v59.809h-394.61z" transform="matrix(1, 0, 0, 1, -379.04425, 603.887817)"/>
  <path fill="#888" d="M74.48 479.167l-26.707-29.905 26.708-29.905h453.91v59.81H74.481z" transform="matrix(1, 0, 0, 1, -379.04425, 603.887817)"/>
  <path fill="#22343D" d="M -187.282 1260.028 L -223.432 1228.72 L -187.282 1200.219 L 149.273 1200.219 L 149.273 1260.028 L -187.282 1260.028 Z" style=""/>
  <path fill="#2F281E" d="M 427.934 1237.754 C 427.934 1247.668 423.658 1257.176 416.046 1264.186 C 408.434 1271.196 398.11 1275.135 387.345 1275.135 L 220.929 1275.135 C 218.528 1275.14 216.226 1276.013 214.515 1277.564 L 170.679 1317.936 L 170.679 1225.455 C 170.677 1222.143 171.38 1218.869 172.741 1215.851 C 174.108 1212.805 176.114 1210.038 178.644 1207.708 C 181.174 1205.378 184.179 1203.531 187.486 1202.272 C 190.817 1201.008 194.351 1200.365 197.914 1200.373 L 387.345 1200.373 C 398.11 1200.373 408.434 1204.311 416.046 1211.321 C 423.658 1218.332 427.934 1227.84 427.934 1237.754 Z"/>
  <path fill="#888" d="M -216.234 1318.545 L -250.343 1288.64 L -216.233 1258.735 L 148.926 1258.735 L 148.926 1318.545 L -216.233 1318.545 L -216.234 1318.545 Z" style=""/>
</svg>