<svg width="810" height="601" viewBox="0 0 810 601" fill="none" xmlns="http://www.w3.org/2000/svg">
<path d="M810 41.3608V42.258C809.989 52.05 805.761 61.4382 798.242 68.3622C790.724 75.2862 780.53 79.1805 769.898 79.1904H604.902C603.103 79.1878 601.321 79.5173 599.661 80.1593C598.002 80.8013 596.5 81.7429 595.242 82.9285L552.745 121.992V42.2206C552.745 32.1975 557.068 22.5849 564.764 15.4975C572.46 8.41013 582.897 4.42847 593.781 4.42847H769.898C780.53 4.43836 790.724 8.33262 798.242 15.2566C805.761 22.1807 809.989 31.5688 810 41.3608V41.3608Z" fill="#E23933"/>
<path d="M602.991 193.572H602.995H769.411C779.816 193.572 789.773 189.764 797.096 183.02C804.414 176.279 808.5 167.165 808.5 157.691C808.5 148.216 804.414 139.102 797.096 132.362C789.773 125.617 779.816 121.81 769.411 121.81L579.98 121.81L579.978 121.81C576.581 121.805 573.219 122.418 570.085 123.611C566.952 124.804 564.112 126.551 561.726 128.749C559.341 130.945 557.457 133.547 556.176 136.402C554.895 139.256 554.24 142.31 554.245 145.39V145.392V234.452L595.565 196.398L595.574 196.39C597.57 194.579 600.235 193.578 602.991 193.572Z" fill="#164C97" stroke="white" stroke-width="3"/>
<path d="M810 277.309C810 287.223 805.724 296.731 798.112 303.742C790.5 310.752 780.176 314.69 769.411 314.69H602.995C600.594 314.696 598.292 315.569 596.581 317.12L552.745 357.492V265.011C552.74 261.716 553.44 258.452 554.807 255.407C556.174 252.361 558.18 249.594 560.71 247.264C563.24 244.934 566.245 243.087 569.552 241.828C572.858 240.569 576.402 239.924 579.98 239.928H769.411C780.176 239.928 790.5 243.867 798.112 250.877C805.724 257.887 810 267.395 810 277.309V277.309Z" fill="#FFCF2D"/>
<path d="M810 393.191C810 403.105 805.724 412.613 798.112 419.623C790.5 426.633 780.176 430.572 769.411 430.572H602.995C600.594 430.577 598.292 431.45 596.581 433.001L552.745 473.373V380.892C552.74 377.597 553.44 374.333 554.807 371.288C556.174 368.242 558.18 365.475 560.71 363.145C563.24 360.815 566.245 358.968 569.552 357.709C572.858 356.45 576.402 355.805 579.98 355.81H769.411C780.176 355.81 790.5 359.748 798.112 366.758C805.724 373.769 810 383.277 810 393.191V393.191Z" fill="#2F281E"/>
<path d="M810 520.286C810 530.2 805.724 539.708 798.112 546.718C790.5 553.728 780.176 557.667 769.411 557.667H602.995C600.594 557.673 598.292 558.545 596.581 560.096L552.745 600.468V507.987C552.74 504.692 553.44 501.428 554.807 498.383C556.174 495.337 558.18 492.57 560.71 490.24C563.24 487.91 566.245 486.063 569.552 484.804C572.858 483.545 576.402 482.9 579.98 482.905H769.411C780.176 482.905 790.5 486.843 798.112 493.853C805.724 500.864 810 510.372 810 520.286Z" fill="#A5B4B4"/>
<path d="M263.951 60.5L237.244 30.5952L263.951 0.69043H528.391V60.5H263.951Z" fill="#E23933"/>
<path d="M200.794 120.31L174.087 90.4048L200.794 60.5H528.391V120.31H200.794Z" fill="#FE5244"/>
<path d="M90.5352 178.619H526.891V121.81H90.5352L65.1671 150.214L90.5352 178.619Z" fill="#164C97" stroke="white" stroke-width="3"/>
<path d="M147.379 239.928L120.671 210.024L147.379 180.119H528.391V239.928H147.379Z" fill="#66B0F0"/>
<path d="M228.111 598.786L201.403 568.881L228.111 538.976H528.391V598.786H228.111Z" fill="#BFCFCC"/>
<path d="M122.295 299.738L95.5869 269.833L122.295 239.928H528.391V299.738H122.295Z" fill="#FFCF2D"/>
<path d="M76.1853 359.548L49.4775 329.643L76.1853 299.738H528.391V359.548H76.1853Z" fill="#F5C55F" fill-opacity="0.98"/>
<path d="M26.7069 419.357L-0.000854492 389.452L26.7069 359.548H528.391V419.357H26.7069Z" fill="#22343D"/>
<path d="M133.781 538.976L107.074 509.071L133.781 479.167H528.391V538.976H133.781Z" fill="#A5B4B4"/>
<path d="M74.4805 479.167L47.7728 449.262L74.4805 419.357H528.391V479.167H74.4805Z" fill="#888888"/>
</svg>
