<svg width="810" height="618" viewBox="0 0 810 618" fill="none" xmlns="http://www.w3.org/2000/svg">
<path d="M0 41.9008V42.8251C0.0107453 52.9134 4.23924 62.5856 11.7575 69.7191C19.2758 76.8526 29.4698 80.8647 40.1022 80.8749H205.098C206.897 80.8722 208.679 81.2117 210.339 81.8731C211.998 82.5346 213.5 83.5046 214.758 84.7261L257.255 124.971V42.7866C257.255 32.4603 252.932 22.5569 245.236 15.255C237.54 7.9532 227.103 3.85107 216.219 3.85107H40.1022C29.4698 3.86127 19.2758 7.87334 11.7575 15.0069C4.23924 22.1404 0.0107453 31.8125 0 41.9008H0Z" fill="#E23933"/>
<path d="M0 161.75C0 171.964 4.27636 181.76 11.8883 188.982C19.5003 196.205 29.8243 200.262 40.5893 200.262H207.005C209.406 200.268 211.708 201.167 213.419 202.765L257.255 244.358V149.08C257.26 145.685 256.56 142.322 255.193 139.185C253.826 136.047 251.82 133.196 249.29 130.796C246.76 128.395 243.755 126.492 240.448 125.195C237.142 123.898 233.598 123.233 230.02 123.238H40.5893C29.8243 123.238 19.5003 127.296 11.8883 134.518C4.27636 141.741 0 151.536 0 161.75Z" fill="#164C97"/>
<path d="M0 284.988C0 295.202 4.27636 304.998 11.8883 312.22C19.5003 319.442 29.8243 323.5 40.5893 323.5H207.005C209.406 323.506 211.708 324.405 213.419 326.003L257.255 367.596V272.318C257.26 268.923 256.56 265.56 255.193 262.422C253.826 259.285 251.82 256.434 249.29 254.034C246.76 251.633 243.755 249.73 240.448 248.433C237.142 247.136 233.598 246.471 230.02 246.476H40.5893C29.8243 246.476 19.5003 250.534 11.8883 257.756C4.27636 264.978 0 274.774 0 284.988H0Z" fill="#FFCF2D"/>
<path d="M0 404.375C0 414.589 4.27636 424.385 11.8883 431.607C19.5003 438.83 29.8243 442.887 40.5893 442.887H207.005C209.406 442.893 211.708 443.792 213.419 445.39L257.255 486.983V391.705C257.26 388.31 256.56 384.947 255.193 381.81C253.826 378.672 251.82 375.821 249.29 373.421C246.76 371.02 243.755 369.117 240.448 367.82C237.142 366.523 233.598 365.858 230.02 365.863H40.5893C29.8243 365.863 19.5003 369.921 11.8883 377.143C4.27636 384.366 0 394.161 0 404.375H0Z" fill="#2F281E"/>
<path d="M546.049 61.619L572.756 30.8095L546.049 0H281.609V61.619H546.049Z" fill="#E23933"/>
<path d="M609.206 123.238L635.913 92.4287L609.206 61.6191H281.609V123.238H609.206Z" fill="#FE5244"/>
<path d="M720.136 184.857L746.844 154.048L720.136 123.238H281.609V184.857H720.136Z" fill="#164C97"/>
<path d="M662.621 246.476L689.329 215.667L662.621 184.857H281.609V246.476H662.621Z" fill="#66B0F0"/>
<path d="M687.705 308.095L714.413 277.286L687.705 246.476H281.609V308.095H687.705Z" fill="#FFCF2D"/>
<path d="M733.815 369.714L760.523 338.905L733.815 308.095H281.609V369.714H733.815Z" fill="#F5C55F" fill-opacity="0.98"/>
<path d="M783.293 431.333L810.001 400.524L783.293 369.714H281.609V431.333H783.293Z" fill="#22343D"/>
<path d="M735.519 492.952L762.227 462.143L735.519 431.333H281.609V492.952H735.519Z" fill="#888888"/>
</svg>
