<svg width="107" height="52" viewBox="0 0 107 52" fill="none" xmlns="http://www.w3.org/2000/svg">
<path d="M21.1272 31.7858H21.1311H90.163C94.2491 31.7858 98.1567 30.2243 101.029 27.4625C103.899 24.7025 105.5 20.9721 105.5 17.0953C105.5 13.2185 103.899 9.48803 101.029 6.7281C98.1567 3.96624 94.2491 2.4048 90.163 2.4048L11.5845 2.4048L11.5823 2.4048C10.2874 2.40294 9.00618 2.64689 7.81248 3.12134C6.61885 3.59577 5.53806 4.29058 4.63058 5.16319C3.72325 6.03569 3.00716 7.06858 2.52038 8.20105C2.03365 9.33336 1.78493 10.5447 1.78683 11.7663V11.7686V48.3005L17.4311 33.2569L17.4393 33.2492C18.4321 32.3086 19.7571 31.7893 21.1272 31.7858Z" fill="#164C97" stroke="white" stroke-width="3"/>
</svg>
